<svg width="927" height="820" viewBox="0 0 927 820" fill="none" xmlns="http://www.w3.org/2000/svg">
<path fill-rule="evenodd" clip-rule="evenodd" d="M502.821 -100.388C529.76 -95.578 557.092 -90.6975 586.258 -81.3918C586.796 -81.2161 587.374 -81.028 587.991 -80.8271C629.377 -67.362 846.63 3.32202 911.625 260.236C977.589 520.982 815.07 745.289 577.491 805.393C339.911 865.496 78.6841 732.693 14.467 478.854C-49.7501 225.015 118.758 56.7491 150.52 28.8425C159.727 20.3139 168.419 12.6899 176.889 5.26083C202.796 -17.4633 226.624 -38.3635 256.75 -77.7522C275.36 -103.39 289.216 -136.173 278.902 -205.818C325.128 -172.361 379.98 -133.913 415.77 -120.98C445.517 -110.621 473.943 -105.545 502.821 -100.388ZM247.499 583.104C229.149 506.38 282.899 416.354 373.324 392.126C440.443 374.528 505.485 399.496 559.535 420.245C598.156 435.07 631.165 447.741 655.311 441.191C680.015 434.408 710.117 400.479 739.834 366.983L739.834 366.983C769.091 334.007 797.973 301.452 820.963 295.636C870.239 283.17 896.97 330.848 904.686 361.348C912.402 391.849 916.483 449.431 901.827 489.765C887.171 530.1 875.022 546.813 847.223 551.729C830.399 554.538 800.072 536.158 767.82 516.611C730.615 494.063 690.848 469.961 666.289 475.041C640.723 480.575 608.229 513.29 571.512 550.255L571.511 550.255C524.968 597.113 471.641 650.801 417.045 664.613C357.913 679.573 337.945 675.159 314.95 667.396C280.156 654.21 257.461 626.441 247.457 582.938L247.499 583.104ZM707.273 547.391C693.537 542.459 676.509 545.709 660.729 549.701L660.784 549.687C658.95 550.151 657.204 550.578 655.529 550.988C642.795 554.105 634.098 556.234 620.866 566.076C606.177 577.002 592.841 596.637 584.234 609.309L583.739 610.037C575.154 622.674 575.327 631.273 583.18 637.399C590.996 643.497 595.669 637.169 608.822 619.36L609.009 619.107C610.168 617.537 611.286 615.994 612.384 614.478L612.385 614.477C623.878 598.607 633.173 585.773 664.659 577.808C698.398 569.273 707.786 579.665 717.745 590.689L718.136 591.122L718.414 591.429L718.516 591.541C728.644 602.729 730.139 604.381 735.993 598.74C737.761 597.628 739.264 596.142 740.395 594.387C741.526 592.632 742.257 590.652 742.538 588.585C742.818 586.518 742.641 584.415 742.018 582.425C741.395 580.435 740.343 578.605 738.934 577.067L738.855 576.958L738.855 576.957C732.42 568.095 720.954 552.303 707.273 547.391ZM645.063 703.404C581.944 719.372 549.135 714.033 525.441 703.272L525.579 703.119C525.089 702.949 524.69 702.798 524.348 702.668L524.341 702.665C523.71 702.426 523.273 702.261 522.822 702.184C521.814 702.014 520.731 702.288 517.228 703.174C511.726 704.991 507.083 708.76 504.178 713.766C503.095 715.448 502.369 717.334 502.045 719.307C501.722 721.28 501.808 723.298 502.298 725.235C502.788 727.173 503.672 728.989 504.895 730.571C506.118 732.153 507.653 733.466 509.406 734.431C562.725 762.86 633.947 741.667 685.966 723.275C722.399 709.369 754.497 686.075 778.991 655.766C780.76 653.163 781.688 650.082 781.651 646.938C781.614 643.794 780.614 640.738 778.784 638.181C776.781 634.455 771.313 629.606 764.187 638.699C748.043 658.48 708.181 687.437 645.063 703.404Z" fill="url(#paint0_linear_94_303)" fill-opacity="0.192"/>
<defs>
<linearGradient id="paint0_linear_94_303" x1="1945.82" y1="-1263.97" x2="-88.2365" y2="-375.764" gradientUnits="userSpaceOnUse">
<stop/>
<stop offset="1" stop-color="white" stop-opacity="0"/>
</linearGradient>
</defs>
</svg>
