<svg width="19" height="20" viewBox="0 0 19 20" fill="none" xmlns="http://www.w3.org/2000/svg">
<path d="M2.85603 19.6001V9.63211e-05H10.556C13.076 9.63211e-05 15.064 0.560096 16.52 1.6801C17.976 2.78143 18.704 4.3961 18.704 6.5241C18.704 8.6521 17.976 10.2761 16.52 11.3961C15.064 12.5161 13.076 13.0761 10.556 13.0761H4.42403L5.68403 11.7601V19.6001H2.85603ZM5.68403 12.0401L4.42403 10.7521H10.556C12.2734 10.7521 13.5894 10.3881 14.504 9.6601C15.4187 8.9321 15.876 7.8961 15.876 6.5521C15.876 5.22676 15.4187 4.20943 14.504 3.5001C13.5894 2.79076 12.2734 2.4361 10.556 2.4361H4.42403L5.68403 1.0361V12.0401ZM3.42131e-05 16.3241V14.7281H11.9V16.3241H3.42131e-05Z" fill="#050C33"/>
</svg>
