<svg width="290" height="230" viewBox="0 0 290 230" fill="none" xmlns="http://www.w3.org/2000/svg">
<g filter="url(#filter0_dd_94_668)">
<mask id="mask0_94_668" style="mask-type:alpha" maskUnits="userSpaceOnUse" x="17" y="-17" width="256" height="186">
<path d="M131.684 112.075L164.119 104.351L156.394 71.9159L123.959 79.6406L131.684 112.075Z" fill="#F9E050"/>
<path d="M64.8185 43.2512L97.2533 35.5266L91.6039 11.8056L59.1691 19.5303L64.8185 43.2512Z" fill="#F4F464"/>
<path d="M94.3888 61.4455L126.824 53.7208L119.099 21.286L86.6641 29.0107L94.3888 61.4455ZM22.7579 78.5051L46.6402 72.8173L40.9524 48.9349L17.0701 54.6228L22.7579 78.5051ZM76.1865 90.9833L100.069 85.2955L94.3811 61.4132L70.4987 67.101L76.1865 90.9833Z" fill="#F4F464"/>
<path d="M137.356 135.893L169.791 128.169L162.066 95.7338L129.632 103.458L137.356 135.893Z" fill="#F9B038"/>
<path d="M132.478 153.288L173.433 143.534L167.745 119.652L126.79 129.406L132.478 153.288Z" fill="#F6842D"/>
<path d="M69.3841 168.315L93.2664 162.627L87.5786 138.745L63.6963 144.433L69.3841 168.315Z" fill="#F9E050"/>
<path d="M114.62 40.4282L147.055 32.7035L139.369 0.430109L106.934 8.15479L114.62 40.4282Z" fill="#F6842D"/>
<path d="M87.5582 138.732L111.441 133.045L105.753 109.162L81.8704 114.85L87.5582 138.732Z" fill="#F4F464"/>
<path d="M144.045 58.6574L176.48 50.9328L168.755 18.498L136.32 26.2227L144.045 58.6574Z" fill="#F4AC2B"/>
<path d="M149.721 82.491L182.156 74.7663L174.431 42.3315L141.996 50.0562L149.721 82.491Z" fill="#F6842D"/>
<path d="M155.42 106.422L187.855 98.6969L180.131 66.2621L147.696 73.9868L155.42 106.422Z" fill="#F4AC2B"/>
<path d="M161.093 130.24L193.528 122.516L185.803 90.081L153.368 97.8057L161.093 130.24Z" fill="#F6842D"/>
<path d="M130.832 2.46355L136.481 26.1845L160.202 20.5351L182.946 116.032L159.064 121.72L164.752 145.602L228.766 130.357C238.383 128.066 246.449 124.986 252.925 121.107C259.41 117.261 264.24 112.052 267.452 105.49C270.663 98.927 272.284 90.6971 272.25 80.8151C272.223 70.9654 270.479 58.8474 267.044 44.4212C263.577 29.8659 259.747 18.296 255.546 9.74747C251.29 1.04146 246.36 -5.33848 240.76 -9.37621C235.155 -13.6095 228.344 -15.9423 221.321 -16.035C214.002 -16.338 205.461 -15.327 195.73 -13.0096L154.533 -3.19814L130.832 2.46355ZM184.114 10.458L199.557 6.78018C204.882 5.51195 209.643 5.02601 213.775 5.33774C218.057 5.51146 222.096 7.36839 225.015 10.5047C228.384 13.6243 231.401 18.4137 234.101 24.8814C236.946 31.3145 239.684 40.0921 242.336 51.2264C244.98 62.3284 246.475 71.4703 246.882 78.6205C247.404 85.607 246.885 91.3064 245.331 95.735C243.895 99.8247 241.12 103.31 237.455 105.625C233.878 107.79 229.506 109.479 224.294 110.721L208.867 114.395L184.114 10.458Z" fill="#F14D34"/>
<path d="M118.271 55.7583L142.154 50.0705L136.466 26.1882L112.583 31.876L118.271 55.7583Z" fill="#F9E050"/>
<path d="M117.132 156.943L141.015 151.255L135.327 127.373L111.444 133.061L117.132 156.943Z" fill="#F9B038"/>
<path d="M88.701 37.5633L112.583 31.8754L106.934 8.15446L83.0516 13.8423L88.701 37.5633Z" fill="#F9E050"/>
</mask>
<g mask="url(#mask0_94_668)">
<g filter="url(#filter1_d_94_668)">
<path d="M131.684 112.075L164.119 104.351L156.394 71.9159L123.959 79.6406L131.684 112.075Z" fill="#F9E050"/>
<path d="M64.8185 43.2512L97.2533 35.5266L91.6039 11.8056L59.1691 19.5303L64.8185 43.2512Z" fill="#F4F464"/>
<path d="M94.3888 61.4455L126.824 53.7208L119.099 21.286L86.6641 29.0107L94.3888 61.4455ZM22.7579 78.5051L46.6402 72.8173L40.9524 48.9349L17.0701 54.6228L22.7579 78.5051ZM76.1865 90.9833L100.069 85.2955L94.3811 61.4132L70.4987 67.101L76.1865 90.9833Z" fill="#F4F464"/>
<path d="M137.356 135.893L169.791 128.169L162.066 95.7338L129.632 103.458L137.356 135.893Z" fill="#F9B038"/>
<path d="M132.478 153.288L173.433 143.534L167.745 119.652L126.79 129.406L132.478 153.288Z" fill="#F6842D"/>
<path d="M69.3841 168.315L93.2664 162.627L87.5786 138.745L63.6963 144.433L69.3841 168.315Z" fill="#F9E050"/>
<path d="M114.62 40.4282L147.055 32.7035L139.369 0.430109L106.934 8.15479L114.62 40.4282Z" fill="#F6842D"/>
<path d="M87.5582 138.732L111.441 133.045L105.753 109.162L81.8704 114.85L87.5582 138.732Z" fill="#F4F464"/>
<path d="M144.045 58.6574L176.48 50.9328L168.755 18.498L136.32 26.2227L144.045 58.6574Z" fill="#F4AC2B"/>
<path d="M149.721 82.491L182.156 74.7663L174.431 42.3315L141.996 50.0562L149.721 82.491Z" fill="#F6842D"/>
<path d="M155.42 106.422L187.855 98.6969L180.131 66.2621L147.696 73.9868L155.42 106.422Z" fill="#F4AC2B"/>
<path d="M161.093 130.24L193.528 122.516L185.803 90.081L153.368 97.8057L161.093 130.24Z" fill="#F6842D"/>
<path d="M130.832 2.46355L136.481 26.1845L160.202 20.5351L182.946 116.032L159.064 121.72L164.752 145.602L228.766 130.357C238.383 128.066 246.449 124.986 252.925 121.107C259.41 117.261 264.24 112.052 267.452 105.49C270.663 98.927 272.284 90.6971 272.25 80.8151C272.223 70.9654 270.479 58.8474 267.044 44.4212C263.577 29.8659 259.747 18.296 255.546 9.74747C251.29 1.04146 246.36 -5.33848 240.76 -9.37621C235.155 -13.6095 228.344 -15.9423 221.321 -16.035C214.002 -16.338 205.461 -15.327 195.73 -13.0096L154.533 -3.19814L130.832 2.46355ZM184.114 10.458L199.557 6.78018C204.882 5.51195 209.643 5.02601 213.775 5.33774C218.057 5.51146 222.096 7.36839 225.015 10.5047C228.384 13.6243 231.401 18.4137 234.101 24.8814C236.946 31.3145 239.684 40.0921 242.336 51.2264C244.98 62.3284 246.475 71.4703 246.882 78.6205C247.404 85.607 246.885 91.3064 245.331 95.735C243.895 99.8247 241.12 103.31 237.455 105.625C233.878 107.79 229.506 109.479 224.294 110.721L208.867 114.395L184.114 10.458Z" fill="#F14D34"/>
<path d="M118.271 55.7583L142.154 50.0705L136.466 26.1882L112.583 31.876L118.271 55.7583Z" fill="#F9E050"/>
<path d="M117.132 156.943L141.015 151.255L135.327 127.373L111.444 133.061L117.132 156.943Z" fill="#F9B038"/>
<path d="M88.701 37.5633L112.583 31.8754L106.934 8.15446L83.0516 13.8423L88.701 37.5633Z" fill="#F9E050"/>
</g>
<rect x="11.4167" y="30.8857" width="245.381" height="147.229" transform="rotate(-13.396 11.4167 30.8857)" fill="url(#paint0_linear_94_668)"/>
</g>
</g>
<defs>
<filter id="filter0_dd_94_668" x="-5.65326" y="-26" width="307.08" height="261.169" filterUnits="userSpaceOnUse" color-interpolation-filters="sRGB">
<feFlood flood-opacity="0" result="BackgroundImageFix"/>
<feColorMatrix in="SourceAlpha" type="matrix" values="0 0 0 0 0 0 0 0 0 0 0 0 0 0 0 0 0 0 127 0" result="hardAlpha"/>
<feOffset dy="44.0975"/>
<feGaussianBlur stdDeviation="8.535"/>
<feColorMatrix type="matrix" values="0 0 0 0 0 0 0 0 0 0.0495833 0 0 0 0 0.145833 0 0 0 0.25 0"/>
<feBlend mode="normal" in2="BackgroundImageFix" result="effect1_dropShadow_94_668"/>
<feColorMatrix in="SourceAlpha" type="matrix" values="0 0 0 0 0 0 0 0 0 0 0 0 0 0 0 0 0 0 127 0" result="hardAlpha"/>
<feOffset dy="4.97875"/>
<feColorMatrix type="matrix" values="0 0 0 0 0.2375 0 0 0 0 0.136562 0 0 0 0 0.136562 0 0 0 1 0"/>
<feBlend mode="normal" in2="effect1_dropShadow_94_668" result="effect2_dropShadow_94_668"/>
<feBlend mode="normal" in="SourceGraphic" in2="effect2_dropShadow_94_668" result="shape"/>
</filter>
<filter id="filter1_d_94_668" x="5.91278e-05" y="-16.0874" width="289.32" height="245.57" filterUnits="userSpaceOnUse" color-interpolation-filters="sRGB">
<feFlood flood-opacity="0" result="BackgroundImageFix"/>
<feColorMatrix in="SourceAlpha" type="matrix" values="0 0 0 0 0 0 0 0 0 0 0 0 0 0 0 0 0 0 127 0" result="hardAlpha"/>
<feOffset dy="44.0975"/>
<feGaussianBlur stdDeviation="8.535"/>
<feColorMatrix type="matrix" values="0 0 0 0 0 0 0 0 0 0.0495833 0 0 0 0 0.145833 0 0 0 0.25 0"/>
<feBlend mode="normal" in2="BackgroundImageFix" result="effect1_dropShadow_94_668"/>
<feBlend mode="normal" in="SourceGraphic" in2="effect1_dropShadow_94_668" result="shape"/>
</filter>
<linearGradient id="paint0_linear_94_668" x1="115.615" y1="-39.8837" x2="172.515" y2="136.862" gradientUnits="userSpaceOnUse">
<stop stop-color="white"/>
<stop offset="1" stop-color="white" stop-opacity="0"/>
</linearGradient>
</defs>
</svg>
