<svg width="84" height="84" viewBox="0 0 84 84" fill="none" xmlns="http://www.w3.org/2000/svg">
<g clip-path="url(#clip0_94_509)">
<g filter="url(#filter0_d_94_509)">
<path d="M98.5105 24.9451L91.8714 91.6125L12.1294 91.6125L6.78053 26.2353L52.0004 51.5532L98.5105 24.9451Z" fill="#F2F2F2"/>
</g>
<g filter="url(#filter1_d_94_509)">
<path d="M96.2582 12.3868L52.0002 53.9616L7.74207 12.3868L52.0002 12.3868L96.2582 12.3868Z" fill="#F5F5F5"/>
</g>
<g filter="url(#filter2_d_94_509)">
<path d="M12.129 25.5177L12.129 91.6127H4.90324C2.19619 91.6127 2.89014e-06 89.4167 3.09976e-06 86.7095L8.05258e-06 16.6765L7.92188 16.8924L12.129 25.5177Z" fill="#F2F2F2"/>
</g>
<path d="M104 12.0905L104 17.5434L91.8713 26.3847L52.0002 55.4453L12.1293 26.3847L0.000251683 17.5434L0.000252106 17.2905C0.000252315 14.5835 2.19644 12.3873 4.90349 12.3873H7.74216L52.0002 44.6454L96.2583 12.3873H99.0944C101.804 12.3873 104 9.38329 104 12.0905Z" fill="#F14D34"/>
</g>
<defs>
<filter id="filter0_d_94_509" x="5.78053" y="24.9451" width="93.73" height="68.6675" filterUnits="userSpaceOnUse" color-interpolation-filters="sRGB">
<feFlood flood-opacity="0" result="BackgroundImageFix"/>
<feColorMatrix in="SourceAlpha" type="matrix" values="0 0 0 0 0 0 0 0 0 0 0 0 0 0 0 0 0 0 127 0" result="hardAlpha"/>
<feOffset dy="1"/>
<feGaussianBlur stdDeviation="0.5"/>
<feColorMatrix type="matrix" values="0 0 0 0 0 0 0 0 0 0 0 0 0 0 0 0 0 0 0.264 0"/>
<feBlend mode="normal" in2="BackgroundImageFix" result="effect1_dropShadow_94_509"/>
<feBlend mode="normal" in="SourceGraphic" in2="effect1_dropShadow_94_509" result="shape"/>
</filter>
<filter id="filter1_d_94_509" x="6.74207" y="12.3868" width="90.5162" height="43.5748" filterUnits="userSpaceOnUse" color-interpolation-filters="sRGB">
<feFlood flood-opacity="0" result="BackgroundImageFix"/>
<feColorMatrix in="SourceAlpha" type="matrix" values="0 0 0 0 0 0 0 0 0 0 0 0 0 0 0 0 0 0 127 0" result="hardAlpha"/>
<feOffset dy="1"/>
<feGaussianBlur stdDeviation="0.5"/>
<feColorMatrix type="matrix" values="0 0 0 0 0 0 0 0 0 0 0 0 0 0 0 0 0 0 0.264 0"/>
<feBlend mode="normal" in2="BackgroundImageFix" result="effect1_dropShadow_94_509"/>
<feBlend mode="normal" in="SourceGraphic" in2="effect1_dropShadow_94_509" result="shape"/>
</filter>
<filter id="filter2_d_94_509" x="-0.999992" y="16.6765" width="14.129" height="76.9362" filterUnits="userSpaceOnUse" color-interpolation-filters="sRGB">
<feFlood flood-opacity="0" result="BackgroundImageFix"/>
<feColorMatrix in="SourceAlpha" type="matrix" values="0 0 0 0 0 0 0 0 0 0 0 0 0 0 0 0 0 0 127 0" result="hardAlpha"/>
<feOffset dy="1"/>
<feGaussianBlur stdDeviation="0.5"/>
<feColorMatrix type="matrix" values="0 0 0 0 0 0 0 0 0 0 0 0 0 0 0 0 0 0 0.264 0"/>
<feBlend mode="normal" in2="BackgroundImageFix" result="effect1_dropShadow_94_509"/>
<feBlend mode="normal" in="SourceGraphic" in2="effect1_dropShadow_94_509" result="shape"/>
</filter>
<clipPath id="clip0_94_509">
<rect width="104" height="104" fill="white"/>
</clipPath>
</defs>
</svg>
